<?xml version="1.0" encoding="UTF-8" standalone="no"?>

<svg
   xmlns:svg="http://www.w3.org/2000/svg"
   xmlns="http://www.w3.org/2000/svg"
   width="269.55mm"
   height="116.7mm"
   viewBox="471 -16 1797 778">
<g stroke-linecap="square">
<path d="M 1940,480 L 2100,480 L 2100,700 L 1260,700 L 1260,380 L 1300,380" stroke="#000000" stroke-width="4.0" fill="none"/>
<path d="M 1080,0 L 1100,0" stroke="#000000" stroke-width="4.0" fill="none"/>
<path d="M 1260,0 L 1280,0" stroke="#000000" stroke-width="4.0" fill="none"/>
<path d="M 1780,320 L 1800,320" stroke="#000000" stroke-width="4.0" fill="none"/>
<path d="M 960,260 L 1000,260" stroke="#000000" stroke-width="4.0" fill="none"/>
<path d="M 1280,260 L 1300,260" stroke="#000000" stroke-width="4.0" fill="none"/>
<path d="M 1500,260 L 1520,260" stroke="#000000" stroke-width="4.0" fill="none"/>
<path d="M 1880,260 L 1900,260" stroke="#000000" stroke-width="4.0" fill="none"/>
<path d="M 960,200 L 1300,200" stroke="#000000" stroke-width="4.0" fill="none"/>
<path d="M 720,200 L 820,200" stroke="#000000" stroke-width="4.0" fill="none"/>
<path d="M 580,200 L 600,200" stroke="#000000" stroke-width="4.0" fill="none"/>
<path d="M 2140,200 L 2260,200 L 2260,760 L 1160,760 L 1160,280 L 1300,280" stroke="#000000" stroke-width="4.0" fill="none"/>
<path d="M 1500,200 L 1900,200" stroke="#000000" stroke-width="4.0" fill="none"/>
<path d="M 1500,360 L 1520,360 L 1520,660 L 1640,660" stroke="#000000" stroke-width="4.0" fill="none"/>
<path d="M 1620,620 L 1640,620" stroke="#000000" stroke-width="4.0" fill="none"/>
<path d="M 1800,620 L 1820,620" stroke="#000000" stroke-width="4.0" fill="none"/>
<path d="M 1500,300 L 1620,300 L 1620,460 L 1660,460" stroke="#000000" stroke-width="4.0" fill="none"/>
<path d="M 580,240 L 600,240" stroke="#000000" stroke-width="4.0" fill="none"/>
<path d="M 960,240 L 1000,240" stroke="#000000" stroke-width="4.0" fill="none"/>
<path d="M 1280,240 L 1300,240" stroke="#000000" stroke-width="4.0" fill="none"/>
<path d="M 1500,240 L 1520,240" stroke="#000000" stroke-width="4.0" fill="none"/>
<path d="M 1840,300 L 1840,240 L 1900,240" stroke="#000000" stroke-width="4.0" fill="none"/>
<path d="M 1260,20 L 1280,20" stroke="#000000" stroke-width="4.0" fill="none"/>
<path d="M 1500,340 L 1600,340 L 1600,500 L 1660,500" stroke="#000000" stroke-width="4.0" fill="none"/>
<path d="M 1780,280 L 1800,280" stroke="#000000" stroke-width="4.0" fill="none"/>
<path d="M 1880,300 L 1880,280 L 1900,280" stroke="#000000" stroke-width="4.0" fill="none"/>
<path d="M 2140,220 L 2160,220" stroke="#000000" stroke-width="4.0" fill="none"/>
<path d="M 1880,220 L 1900,220" stroke="#000000" stroke-width="4.0" fill="none"/>
<path d="M 580,220 L 600,220" stroke="#000000" stroke-width="4.0" fill="none"/>
<path d="M 1280,220 L 1300,220" stroke="#000000" stroke-width="4.0" fill="none"/>
<path d="M 960,220 L 1000,220" stroke="#000000" stroke-width="4.0" fill="none"/>
<path d="M 1500,220 L 1520,220" stroke="#000000" stroke-width="4.0" fill="none"/>
<path d="M 1820,320 L 1820,360" stroke="#000000" stroke-width="4.0" fill="none"/>
<g>
</g>
<g>
<path d="M 600,260 L 586,252 L 586,268 Z" stroke="#000000" stroke-width="4.0" fill="none"/>
<text text-anchor="end" x="581.0" y="266.75" fill="#000000" style="font-size:18px">clk</text>
<circle cx="600.0" cy="260.0" r="2.0" stroke="#000000" stroke-width="4.0" fill="#000000" />
</g>
<g>
<path d="M 1101,-14 L 1259,-14 L 1259,74 L 1101,74 Z" stroke="#ffffb4" stroke-width="0.0" fill="#ffffb4" fill-opacity="0.7843137254901961"/>
<path d="M 1101,-14 L 1259,-14 L 1259,74 L 1101,74 Z" stroke="#000000" stroke-width="4.0" fill="none"/>
<text text-anchor="start" x="1104.0" y="6.75" fill="#000000" style="font-size:18px">flags</text>
<text text-anchor="end" x="1256.0" y="6.75" fill="#000000" style="font-size:18px">twoRegFlag</text>
<text text-anchor="end" x="1256.0" y="26.75" fill="#000000" style="font-size:18px">extFlag1</text>
<text text-anchor="end" x="1256.0" y="46.75" fill="#000000" style="font-size:18px">flagReserved2</text>
<text text-anchor="end" x="1256.0" y="66.75" fill="#000000" style="font-size:18px">flagReserved3</text>
<text text-anchor="middle" x="1180.0" y="91.5" fill="#000000" style="font-size:18px">flag decode</text>
<circle cx="1100.0" cy="0.0" r="2.0" stroke="#000000" stroke-width="4.0" fill="#000000" />
<circle cx="1260.0" cy="0.0" r="2.0" stroke="#000000" stroke-width="4.0" fill="#000000" />
<circle cx="1260.0" cy="20.0" r="2.0" stroke="#000000" stroke-width="4.0" fill="#000000" />
<circle cx="1260.0" cy="40.0" r="2.0" stroke="#000000" stroke-width="4.0" fill="#000000" />
<circle cx="1260.0" cy="60.0" r="2.0" stroke="#000000" stroke-width="4.0" fill="#000000" />
</g>
<g>
<path d="M 1000,220 L 1014,228 L 1014,212 Z" stroke="#000000" stroke-width="4.0" fill="none"/>
<text text-anchor="start" x="1019.0" y="226.75" fill="#000000" style="font-size:18px">flags</text>
<circle cx="1000.0" cy="220.0" r="2.0" stroke="#000000" stroke-width="4.0" fill="#000000" />
</g>
<g>
<path d="M 1080,0 L 1066,-8 L 1066,8 Z" stroke="#000000" stroke-width="4.0" fill="none"/>
<text text-anchor="end" x="1061.0" y="6.75" fill="#000000" style="font-size:18px">flags</text>
<circle cx="1080.0" cy="0.0" r="2.0" stroke="#000000" stroke-width="4.0" fill="#000000" />
</g>
<g>
<path d="M 1000,240 L 1014,248 L 1014,232 Z" stroke="#000000" stroke-width="4.0" fill="none"/>
<text text-anchor="start" x="1019.0" y="246.75" fill="#000000" style="font-size:18px">firstOperand</text>
<circle cx="1000.0" cy="240.0" r="2.0" stroke="#000000" stroke-width="4.0" fill="#000000" />
</g>
<g>
<path d="M 1000,260 L 1014,268 L 1014,252 Z" stroke="#000000" stroke-width="4.0" fill="none"/>
<text text-anchor="start" x="1019.0" y="266.75" fill="#000000" style="font-size:18px">secondOperand</text>
<circle cx="1000.0" cy="260.0" r="2.0" stroke="#000000" stroke-width="4.0" fill="#000000" />
</g>
<g>
<path d="M 1280,220 L 1266,212 L 1266,228 Z" stroke="#000000" stroke-width="4.0" fill="none"/>
<text text-anchor="end" x="1261.0" y="226.75" fill="#000000" style="font-size:18px">firstOperand</text>
<circle cx="1280.0" cy="220.0" r="2.0" stroke="#000000" stroke-width="4.0" fill="#000000" />
</g>
<g>
<path d="M 1280,240 L 1266,232 L 1266,248 Z" stroke="#000000" stroke-width="4.0" fill="none"/>
<text text-anchor="end" x="1261.0" y="246.75" fill="#000000" style="font-size:18px">wDataOut</text>
<circle cx="1280.0" cy="240.0" r="2.0" stroke="#000000" stroke-width="4.0" fill="#000000" />
</g>
<g>
<path d="M 1280,260 L 1266,252 L 1266,268 Z" stroke="#000000" stroke-width="4.0" fill="none"/>
<text text-anchor="end" x="1261.0" y="266.75" fill="#000000" style="font-size:18px">twoRegFlag</text>
<circle cx="1280.0" cy="260.0" r="2.0" stroke="#000000" stroke-width="4.0" fill="#000000" />
</g>
<g>
<path d="M 1801,276 L 1839,285 L 1839,315 L 1801,324 Z" stroke="#000000" stroke-width="4.0" fill="none"/>
<text text-anchor="start" x="1803.0" y="295.5" fill="#000000" style="font-size:18px">0</text>
<circle cx="1820.0" cy="320.0" r="2.0" stroke="#000000" stroke-width="4.0" fill="#000000" />
<circle cx="1800.0" cy="280.0" r="2.0" stroke="#000000" stroke-width="4.0" fill="#000000" />
<circle cx="1800.0" cy="320.0" r="2.0" stroke="#000000" stroke-width="4.0" fill="#000000" />
<circle cx="1840.0" cy="300.0" r="2.0" stroke="#000000" stroke-width="4.0" fill="#000000" />
</g>
<g>
<path d="M 1820,360 L 1806,352 L 1806,368 Z" stroke="#000000" stroke-width="4.0" fill="none"/>
<text text-anchor="end" x="1801.0" y="366.75" fill="#000000" style="font-size:18px">twoRegFlag</text>
<circle cx="1820.0" cy="360.0" r="2.0" stroke="#000000" stroke-width="4.0" fill="#000000" />
</g>
<g>
<path d="M 1780,280 L 1766,272 L 1766,288 Z" stroke="#000000" stroke-width="4.0" fill="none"/>
<text text-anchor="end" x="1761.0" y="286.75" fill="#000000" style="font-size:18px">secondOperand</text>
<circle cx="1780.0" cy="280.0" r="2.0" stroke="#000000" stroke-width="4.0" fill="#000000" />
</g>
<g>
<path d="M 1780,320 L 1766,312 L 1766,328 Z" stroke="#000000" stroke-width="4.0" fill="none"/>
<text text-anchor="end" x="1761.0" y="326.75" fill="#000000" style="font-size:18px">firstOperand</text>
<circle cx="1780.0" cy="320.0" r="2.0" stroke="#000000" stroke-width="4.0" fill="#000000" />
</g>
<g>
<path d="M 1880,220 L 1866,212 L 1866,228 Z" stroke="#000000" stroke-width="4.0" fill="none"/>
<text text-anchor="end" x="1861.0" y="226.75" fill="#000000" style="font-size:18px">secondOperand</text>
<circle cx="1880.0" cy="220.0" r="2.0" stroke="#000000" stroke-width="4.0" fill="#000000" />
</g>
<g>
<path d="M 1880,260 L 1866,252 L 1866,268 Z" stroke="#000000" stroke-width="4.0" fill="none"/>
<text text-anchor="end" x="1861.0" y="266.75" fill="#000000" style="font-size:18px">clk</text>
<circle cx="1880.0" cy="260.0" r="2.0" stroke="#000000" stroke-width="4.0" fill="#000000" />
</g>
<g>
<path d="M 2160,220 L 2174,228 L 2174,212 Z" stroke="#000000" stroke-width="4.0" fill="none"/>
<text text-anchor="start" x="2179.0" y="226.75" fill="#000000" style="font-size:18px">wDataOut</text>
<circle cx="2160.0" cy="220.0" r="2.0" stroke="#000000" stroke-width="4.0" fill="#000000" />
</g>
<g>
<path d="M 2140,20 L 2154,28 L 2154,12 Z" stroke="#000000" stroke-width="4.0" fill="none"/>
<text text-anchor="start" x="2159.0" y="26.75" fill="#000000" style="font-size:18px">clk</text>
<circle cx="2140.0" cy="20.0" r="2.0" stroke="#000000" stroke-width="4.0" fill="#000000" />
</g>
<g>
<path d="M 821,186 L 959,186 L 959,274 L 821,274 Z" stroke="#ffffb4" stroke-width="0.0" fill="#ffffb4" fill-opacity="0.7843137254901961"/>
<path d="M 821,186 L 959,186 L 959,274 L 821,274 Z" stroke="#000000" stroke-width="4.0" fill="none"/>
<text text-anchor="start" x="824.0" y="206.75" fill="#000000" style="font-size:18px">instr</text>
<text text-anchor="end" x="956.0" y="206.75" fill="#000000" style="font-size:18px">opcode</text>
<text text-anchor="end" x="956.0" y="226.75" fill="#000000" style="font-size:18px">flags</text>
<text text-anchor="end" x="956.0" y="246.75" fill="#000000" style="font-size:18px">firstOperand</text>
<text text-anchor="end" x="956.0" y="266.75" fill="#000000" style="font-size:18px">secondOperand</text>
<text text-anchor="middle" x="890.0" y="291.5" fill="#000000" style="font-size:18px">decode</text>
<circle cx="820.0" cy="200.0" r="2.0" stroke="#000000" stroke-width="4.0" fill="#000000" />
<circle cx="960.0" cy="200.0" r="2.0" stroke="#000000" stroke-width="4.0" fill="#000000" />
<circle cx="960.0" cy="220.0" r="2.0" stroke="#000000" stroke-width="4.0" fill="#000000" />
<circle cx="960.0" cy="240.0" r="2.0" stroke="#000000" stroke-width="4.0" fill="#000000" />
<circle cx="960.0" cy="260.0" r="2.0" stroke="#000000" stroke-width="4.0" fill="#000000" />
</g>
<g>
<path d="M 1301,186 L 1499,186 L 1499,414 L 1301,414 Z" stroke="#ffffb4" stroke-width="0.0" fill="#ffffb4" fill-opacity="0.7843137254901961"/>
<path d="M 1301,186 L 1499,186 L 1499,414 L 1301,414 Z" stroke="#000000" stroke-width="4.0" fill="none"/>
<text text-anchor="start" x="1304.0" y="206.75" fill="#000000" style="font-size:18px">opcode</text>
<text text-anchor="start" x="1304.0" y="226.75" fill="#000000" style="font-size:18px">firstOperand</text>
<text text-anchor="start" x="1304.0" y="246.75" fill="#000000" style="font-size:18px">secondOperand</text>
<text text-anchor="start" x="1304.0" y="266.75" fill="#000000" style="font-size:18px">twoRegFlag</text>
<text text-anchor="start" x="1304.0" y="286.75" fill="#000000" style="font-size:18px">rRegData</text>
<text text-anchor="start" x="1304.0" y="306.75" fill="#000000" style="font-size:18px">pc</text>
<text text-anchor="start" x="1304.0" y="326.75" fill="#000000" style="font-size:18px">cmp</text>
<path d="M 1301,347 L 1308,340 L 1301,333" stroke="#000000" stroke-width="2.0" fill="none"/>
<text text-anchor="start" x="1311.0" y="346.75" fill="#000000" style="font-size:18px">clk</text>
<text text-anchor="start" x="1304.0" y="366.75" fill="#000000" style="font-size:18px">extFlag1</text>
<text text-anchor="start" x="1304.0" y="386.75" fill="#000000" style="font-size:18px">rRamData</text>
<text text-anchor="start" x="1304.0" y="406.75" fill="#000000" style="font-size:18px">secondOperandLiteral</text>
<text text-anchor="end" x="1496.0" y="206.75" fill="#000000" style="font-size:18px">result</text>
<text text-anchor="end" x="1496.0" y="226.75" fill="#000000" style="font-size:18px">carryFlag</text>
<text text-anchor="end" x="1496.0" y="246.75" fill="#000000" style="font-size:18px">jmpAddr</text>
<text text-anchor="end" x="1496.0" y="266.75" fill="#000000" style="font-size:18px">jmpFlag</text>
<text text-anchor="end" x="1496.0" y="286.75" fill="#000000" style="font-size:18px">mcodeFlag</text>
<text text-anchor="end" x="1496.0" y="306.75" fill="#000000" style="font-size:18px">wRamEnable</text>
<text text-anchor="end" x="1496.0" y="326.75" fill="#000000" style="font-size:18px">rwRamAddr</text>
<text text-anchor="end" x="1496.0" y="346.75" fill="#000000" style="font-size:18px">wRamData</text>
<text text-anchor="end" x="1496.0" y="366.75" fill="#000000" style="font-size:18px">wUARTFlag</text>
<text text-anchor="middle" x="1400.0" y="431.5" fill="#000000" style="font-size:18px">execute</text>
<circle cx="1300.0" cy="200.0" r="2.0" stroke="#000000" stroke-width="4.0" fill="#000000" />
<circle cx="1300.0" cy="220.0" r="2.0" stroke="#000000" stroke-width="4.0" fill="#000000" />
<circle cx="1300.0" cy="240.0" r="2.0" stroke="#000000" stroke-width="4.0" fill="#000000" />
<circle cx="1300.0" cy="260.0" r="2.0" stroke="#000000" stroke-width="4.0" fill="#000000" />
<circle cx="1300.0" cy="280.0" r="2.0" stroke="#000000" stroke-width="4.0" fill="#000000" />
<circle cx="1300.0" cy="300.0" r="2.0" stroke="#000000" stroke-width="4.0" fill="#000000" />
<circle cx="1300.0" cy="320.0" r="2.0" stroke="#000000" stroke-width="4.0" fill="#000000" />
<circle cx="1300.0" cy="340.0" r="2.0" stroke="#000000" stroke-width="4.0" fill="#000000" />
<circle cx="1300.0" cy="360.0" r="2.0" stroke="#000000" stroke-width="4.0" fill="#000000" />
<circle cx="1300.0" cy="380.0" r="2.0" stroke="#000000" stroke-width="4.0" fill="#000000" />
<circle cx="1300.0" cy="400.0" r="2.0" stroke="#000000" stroke-width="4.0" fill="#000000" />
<circle cx="1500.0" cy="200.0" r="2.0" stroke="#000000" stroke-width="4.0" fill="#000000" />
<circle cx="1500.0" cy="220.0" r="2.0" stroke="#000000" stroke-width="4.0" fill="#000000" />
<circle cx="1500.0" cy="240.0" r="2.0" stroke="#000000" stroke-width="4.0" fill="#000000" />
<circle cx="1500.0" cy="260.0" r="2.0" stroke="#000000" stroke-width="4.0" fill="#000000" />
<circle cx="1500.0" cy="280.0" r="2.0" stroke="#000000" stroke-width="4.0" fill="#000000" />
<circle cx="1500.0" cy="300.0" r="2.0" stroke="#000000" stroke-width="4.0" fill="#000000" />
<circle cx="1500.0" cy="320.0" r="2.0" stroke="#000000" stroke-width="4.0" fill="#000000" />
<circle cx="1500.0" cy="340.0" r="2.0" stroke="#000000" stroke-width="4.0" fill="#000000" />
<circle cx="1500.0" cy="360.0" r="2.0" stroke="#000000" stroke-width="4.0" fill="#000000" />
</g>
<g>
<path d="M 1520,220 L 1534,228 L 1534,212 Z" stroke="#000000" stroke-width="4.0" fill="none"/>
<text text-anchor="start" x="1539.0" y="226.75" fill="#000000" style="font-size:18px">carryFlag</text>
<circle cx="1520.0" cy="220.0" r="2.0" stroke="#000000" stroke-width="4.0" fill="#000000" />
</g>
<g>
<path d="M 1300,300 L 1286,292 L 1286,308 Z" stroke="#000000" stroke-width="4.0" fill="none"/>
<text text-anchor="end" x="1281.0" y="306.75" fill="#000000" style="font-size:18px">pc</text>
<circle cx="1300.0" cy="300.0" r="2.0" stroke="#000000" stroke-width="4.0" fill="#000000" />
</g>
<g>
<path d="M 1520,240 L 1534,248 L 1534,232 Z" stroke="#000000" stroke-width="4.0" fill="none"/>
<text text-anchor="start" x="1539.0" y="246.75" fill="#000000" style="font-size:18px">jmpAddr</text>
<circle cx="1520.0" cy="240.0" r="2.0" stroke="#000000" stroke-width="4.0" fill="#000000" />
</g>
<g>
<path d="M 1520,260 L 1534,268 L 1534,252 Z" stroke="#000000" stroke-width="4.0" fill="none"/>
<text text-anchor="start" x="1539.0" y="266.75" fill="#000000" style="font-size:18px">jmpFlag</text>
<circle cx="1520.0" cy="260.0" r="2.0" stroke="#000000" stroke-width="4.0" fill="#000000" />
</g>
<g>
<path d="M 1280,0 L 1294,8 L 1294,-8 Z" stroke="#000000" stroke-width="4.0" fill="none"/>
<text text-anchor="start" x="1299.0" y="6.75" fill="#000000" style="font-size:18px">twoRegFlag</text>
<circle cx="1280.0" cy="0.0" r="2.0" stroke="#000000" stroke-width="4.0" fill="#000000" />
</g>
<g>
<path d="M 2140,240 L 2154,248 L 2154,232 Z" stroke="#000000" stroke-width="4.0" fill="none"/>
<text text-anchor="start" x="2159.0" y="246.75" fill="#000000" style="font-size:18px">cmp</text>
<circle cx="2140.0" cy="240.0" r="2.0" stroke="#000000" stroke-width="4.0" fill="#000000" />
</g>
<g>
<path d="M 2140,260 L 2154,268 L 2154,252 Z" stroke="#000000" stroke-width="4.0" fill="none"/>
<text text-anchor="start" x="2159.0" y="266.75" fill="#000000" style="font-size:18px">ret</text>
<circle cx="2140.0" cy="260.0" r="2.0" stroke="#000000" stroke-width="4.0" fill="#000000" />
</g>
<g>
<path d="M 1300,320 L 1286,312 L 1286,328 Z" stroke="#000000" stroke-width="4.0" fill="none"/>
<text text-anchor="end" x="1281.0" y="326.75" fill="#000000" style="font-size:18px">cmp</text>
<circle cx="1300.0" cy="320.0" r="2.0" stroke="#000000" stroke-width="4.0" fill="#000000" />
</g>
<g>
<path d="M 601,186 L 719,186 L 719,274 L 601,274 Z" stroke="#ffffb4" stroke-width="0.0" fill="#ffffb4" fill-opacity="0.7843137254901961"/>
<path d="M 601,186 L 719,186 L 719,274 L 601,274 Z" stroke="#000000" stroke-width="4.0" fill="none"/>
<text text-anchor="start" x="604.0" y="206.75" fill="#000000" style="font-size:18px">mcodeFlag</text>
<text text-anchor="start" x="604.0" y="226.75" fill="#000000" style="font-size:18px">jmpAddr</text>
<text text-anchor="start" x="604.0" y="246.75" fill="#000000" style="font-size:18px">jmpFlag</text>
<path d="M 601,267 L 608,260 L 601,253" stroke="#000000" stroke-width="2.0" fill="none"/>
<text text-anchor="start" x="611.0" y="266.75" fill="#000000" style="font-size:18px">clk</text>
<text text-anchor="end" x="716.0" y="206.75" fill="#000000" style="font-size:18px">D</text>
<text text-anchor="end" x="716.0" y="226.75" fill="#000000" style="font-size:18px">pc</text>
<text text-anchor="middle" x="660.0" y="291.5" fill="#000000" style="font-size:18px">fetch</text>
<circle cx="600.0" cy="200.0" r="2.0" stroke="#000000" stroke-width="4.0" fill="#000000" />
<circle cx="600.0" cy="220.0" r="2.0" stroke="#000000" stroke-width="4.0" fill="#000000" />
<circle cx="600.0" cy="240.0" r="2.0" stroke="#000000" stroke-width="4.0" fill="#000000" />
<circle cx="600.0" cy="260.0" r="2.0" stroke="#000000" stroke-width="4.0" fill="#000000" />
<circle cx="720.0" cy="200.0" r="2.0" stroke="#000000" stroke-width="4.0" fill="#000000" />
<circle cx="720.0" cy="220.0" r="2.0" stroke="#000000" stroke-width="4.0" fill="#000000" />
</g>
<g>
<path d="M 580,240 L 566,232 L 566,248 Z" stroke="#000000" stroke-width="4.0" fill="none"/>
<text text-anchor="end" x="561.0" y="246.75" fill="#000000" style="font-size:18px">jmpFlag</text>
<circle cx="580.0" cy="240.0" r="2.0" stroke="#000000" stroke-width="4.0" fill="#000000" />
</g>
<g>
<path d="M 580,220 L 566,212 L 566,228 Z" stroke="#000000" stroke-width="4.0" fill="none"/>
<text text-anchor="end" x="561.0" y="226.75" fill="#000000" style="font-size:18px">jmpAddr</text>
<circle cx="580.0" cy="220.0" r="2.0" stroke="#000000" stroke-width="4.0" fill="#000000" />
</g>
<g>
<path d="M 720,220 L 734,228 L 734,212 Z" stroke="#000000" stroke-width="4.0" fill="none"/>
<text text-anchor="start" x="739.0" y="226.75" fill="#000000" style="font-size:18px">pc</text>
<circle cx="720.0" cy="220.0" r="2.0" stroke="#000000" stroke-width="4.0" fill="#000000" />
</g>
<g>
<path d="M 1500,280 L 1514,288 L 1514,272 Z" stroke="#000000" stroke-width="4.0" fill="none"/>
<text text-anchor="start" x="1519.0" y="286.75" fill="#000000" style="font-size:18px">mcodeFlag</text>
<circle cx="1500.0" cy="280.0" r="2.0" stroke="#000000" stroke-width="4.0" fill="#000000" />
</g>
<g>
<path d="M 580,200 L 566,192 L 566,208 Z" stroke="#000000" stroke-width="4.0" fill="none"/>
<text text-anchor="end" x="561.0" y="206.75" fill="#000000" style="font-size:18px">mcodeFlag</text>
<circle cx="580.0" cy="200.0" r="2.0" stroke="#000000" stroke-width="4.0" fill="#000000" />
</g>
<g>
<path d="M 1300,340 L 1286,332 L 1286,348 Z" stroke="#000000" stroke-width="4.0" fill="none"/>
<text text-anchor="end" x="1281.0" y="346.75" fill="#000000" style="font-size:18px">clk</text>
<circle cx="1300.0" cy="340.0" r="2.0" stroke="#000000" stroke-width="4.0" fill="#000000" />
</g>
<g>
<path d="M 1280,20 L 1294,28 L 1294,12 Z" stroke="#000000" stroke-width="4.0" fill="none"/>
<text text-anchor="start" x="1299.0" y="26.75" fill="#000000" style="font-size:18px">extFlag1T</text>
<circle cx="1280.0" cy="20.0" r="2.0" stroke="#000000" stroke-width="4.0" fill="#000000" />
</g>
<g>
<path d="M 1300,360 L 1286,352 L 1286,368 Z" stroke="#000000" stroke-width="4.0" fill="none"/>
<text text-anchor="end" x="1281.0" y="366.75" fill="#000000" style="font-size:18px">extFlag1T</text>
<circle cx="1300.0" cy="360.0" r="2.0" stroke="#000000" stroke-width="4.0" fill="#000000" />
</g>
<g>
<path d="M 2109,5 L 2139,5 L 2139,35 L 2109,35 Z" stroke="#000000" stroke-width="4.0" fill="none"/>
<text text-anchor="end" x="2095.0" y="29.0" fill="#000000" style="font-size:24px"><tspan style="font-style:italic;">clk</tspan></text>
<path d="M 2115,25 L 2120,25 L 2120,15 L 2125,15 L 2125,25 L 2130,25 L 2130,15 L 2135,15" stroke="#000000" stroke-width="2.0" fill="none"/>
<circle cx="2140.0" cy="20.0" r="2.0" stroke="#000000" stroke-width="4.0" fill="#000000" />
</g>
<g>
<path d="M 1901,186 L 2139,186 L 2139,294 L 1901,294 Z" stroke="#ffffb4" stroke-width="0.0" fill="#ffffb4" fill-opacity="0.7843137254901961"/>
<path d="M 1901,186 L 2139,186 L 2139,294 L 1901,294 Z" stroke="#000000" stroke-width="4.0" fill="none"/>
<text text-anchor="start" x="1904.0" y="206.75" fill="#000000" style="font-size:18px">wRegData</text>
<text text-anchor="start" x="1904.0" y="226.75" fill="#000000" style="font-size:18px">wRegAddr</text>
<text text-anchor="start" x="1904.0" y="246.75" fill="#000000" style="font-size:18px">rRegAddr</text>
<path d="M 1901,267 L 1908,260 L 1901,253" stroke="#000000" stroke-width="2.0" fill="none"/>
<text text-anchor="start" x="1911.0" y="266.75" fill="#000000" style="font-size:18px">clk</text>
<text text-anchor="start" x="1904.0" y="286.75" fill="#000000" style="font-size:18px">UARTReady</text>
<text text-anchor="end" x="2136.0" y="206.75" fill="#000000" style="font-size:18px">rRegData</text>
<text text-anchor="end" x="2136.0" y="226.75" fill="#000000" style="font-size:18px">wDataOut</text>
<text text-anchor="end" x="2136.0" y="246.75" fill="#000000" style="font-size:18px">cmp</text>
<text text-anchor="end" x="2136.0" y="266.75" fill="#000000" style="font-size:18px">ret</text>
<text text-anchor="end" x="2136.0" y="286.75" fill="#000000" style="font-size:18px">wUARTReg</text>
<text text-anchor="middle" x="2020.0" y="311.5" fill="#000000" style="font-size:18px">registerFile</text>
<circle cx="1900.0" cy="200.0" r="2.0" stroke="#000000" stroke-width="4.0" fill="#000000" />
<circle cx="1900.0" cy="220.0" r="2.0" stroke="#000000" stroke-width="4.0" fill="#000000" />
<circle cx="1900.0" cy="240.0" r="2.0" stroke="#000000" stroke-width="4.0" fill="#000000" />
<circle cx="1900.0" cy="260.0" r="2.0" stroke="#000000" stroke-width="4.0" fill="#000000" />
<circle cx="1900.0" cy="280.0" r="2.0" stroke="#000000" stroke-width="4.0" fill="#000000" />
<circle cx="2140.0" cy="200.0" r="2.0" stroke="#000000" stroke-width="4.0" fill="#000000" />
<circle cx="2140.0" cy="220.0" r="2.0" stroke="#000000" stroke-width="4.0" fill="#000000" />
<circle cx="2140.0" cy="240.0" r="2.0" stroke="#000000" stroke-width="4.0" fill="#000000" />
<circle cx="2140.0" cy="260.0" r="2.0" stroke="#000000" stroke-width="4.0" fill="#000000" />
<circle cx="2140.0" cy="280.0" r="2.0" stroke="#000000" stroke-width="4.0" fill="#000000" />
</g>
<g>
<circle cx="1836.0" cy="620.0" r="9.0" stroke="#000000" stroke-width="4.0" fill="none" />
<circle cx="1836.0" cy="620.0" r="15.0" stroke="#000000" stroke-width="4.0" fill="none" />
<text text-anchor="start" x="1865.0" y="629.0" fill="#000000" style="font-size:24px"><tspan style="font-style:italic;">UART<tspan style="font-size:80%;baseline-shift:sub;">txPin</tspan></tspan></text>
<circle cx="1820.0" cy="620.0" r="2.0" stroke="#000000" stroke-width="4.0" fill="#000000" />
</g>
<g>
<path d="M 1661,426 L 1939,426 L 1939,534 L 1661,534 Z" stroke="#ffffb4" stroke-width="0.0" fill="#ffffb4" fill-opacity="0.7843137254901961"/>
<path d="M 1661,426 L 1939,426 L 1939,534 L 1661,534 Z" stroke="#000000" stroke-width="4.0" fill="none"/>
<path d="M 1661,447 L 1668,440 L 1661,433" stroke="#000000" stroke-width="2.0" fill="none"/>
<text text-anchor="start" x="1671.0" y="446.75" fill="#000000" style="font-size:18px">clk</text>
<text text-anchor="start" x="1664.0" y="466.75" fill="#000000" style="font-size:18px">wEnable</text>
<text text-anchor="start" x="1664.0" y="506.75" fill="#000000" style="font-size:18px">wData</text>
<text text-anchor="start" x="1664.0" y="526.75" fill="#000000" style="font-size:18px">rwAddr</text>
<text text-anchor="end" x="1936.0" y="486.75" fill="#000000" style="font-size:18px">rData</text>
<text text-anchor="middle" x="1800.0" y="551.5" fill="#000000" style="font-size:18px">RAM</text>
<circle cx="1660.0" cy="440.0" r="2.0" stroke="#000000" stroke-width="4.0" fill="#000000" />
<circle cx="1660.0" cy="460.0" r="2.0" stroke="#000000" stroke-width="4.0" fill="#000000" />
<circle cx="1660.0" cy="500.0" r="2.0" stroke="#000000" stroke-width="4.0" fill="#000000" />
<circle cx="1660.0" cy="520.0" r="2.0" stroke="#000000" stroke-width="4.0" fill="#000000" />
<circle cx="1940.0" cy="480.0" r="2.0" stroke="#000000" stroke-width="4.0" fill="#000000" />
</g>
<g>
<path d="M 1500,320 L 1514,328 L 1514,312 Z" stroke="#000000" stroke-width="4.0" fill="none"/>
<text text-anchor="start" x="1519.0" y="326.75" fill="#000000" style="font-size:18px">rwRamAddrT</text>
<circle cx="1500.0" cy="320.0" r="2.0" stroke="#000000" stroke-width="4.0" fill="#000000" />
</g>
<g>
<path d="M 1660,520 L 1646,512 L 1646,528 Z" stroke="#000000" stroke-width="4.0" fill="none"/>
<text text-anchor="end" x="1641.0" y="526.75" fill="#000000" style="font-size:18px">rwRamAddrT</text>
<circle cx="1660.0" cy="520.0" r="2.0" stroke="#000000" stroke-width="4.0" fill="#000000" />
</g>
<g>
<path d="M 1300,400 L 1286,392 L 1286,408 Z" stroke="#000000" stroke-width="4.0" fill="none"/>
<text text-anchor="end" x="1281.0" y="406.75" fill="#000000" style="font-size:18px">secondOperand</text>
<circle cx="1300.0" cy="400.0" r="2.0" stroke="#000000" stroke-width="4.0" fill="#000000" />
</g>
<g>
<path d="M 1660,440 L 1646,432 L 1646,448 Z" stroke="#000000" stroke-width="4.0" fill="none"/>
<text text-anchor="end" x="1641.0" y="446.75" fill="#000000" style="font-size:18px">clk</text>
<circle cx="1660.0" cy="440.0" r="2.0" stroke="#000000" stroke-width="4.0" fill="#000000" />
</g>
<g>
<path d="M 1641,590 L 1799,590 L 1799,670 L 1641,670 Z" stroke="#000000" stroke-width="4.0" fill="none"/>
<text text-anchor="middle" x="1720.0" y="582.0" fill="#000000" style="font-size:24px">uart_tx</text>
<text text-anchor="start" x="1644.0" y="606.75" fill="#000000" style="font-size:18px">clk</text>
<text text-anchor="start" x="1644.0" y="626.75" fill="#000000" style="font-size:18px">rst_n</text>
<text text-anchor="start" x="1644.0" y="646.75" fill="#000000" style="font-size:18px">tx_data</text>
<text text-anchor="start" x="1644.0" y="666.75" fill="#000000" style="font-size:18px">tx_data_valid</text>
<text text-anchor="end" x="1796.0" y="606.75" fill="#000000" style="font-size:18px">tx_data_ready</text>
<text text-anchor="end" x="1796.0" y="626.75" fill="#000000" style="font-size:18px">tx_pin</text>
<text text-anchor="middle" x="1720.0" y="687.5" fill="#000000" style="font-size:18px">External</text>
<circle cx="1640.0" cy="600.0" r="2.0" stroke="#000000" stroke-width="4.0" fill="#000000" />
<circle cx="1640.0" cy="620.0" r="2.0" stroke="#000000" stroke-width="4.0" fill="#000000" />
<circle cx="1640.0" cy="640.0" r="2.0" stroke="#000000" stroke-width="4.0" fill="#000000" />
<circle cx="1640.0" cy="660.0" r="2.0" stroke="#000000" stroke-width="4.0" fill="#000000" />
<circle cx="1800.0" cy="600.0" r="2.0" stroke="#000000" stroke-width="4.0" fill="#000000" />
<circle cx="1800.0" cy="620.0" r="2.0" stroke="#000000" stroke-width="4.0" fill="#000000" />
</g>
<g>
<path d="M 1640,600 L 1626,592 L 1626,608 Z" stroke="#000000" stroke-width="4.0" fill="none"/>
<text text-anchor="end" x="1621.0" y="606.75" fill="#000000" style="font-size:18px">clk</text>
<circle cx="1640.0" cy="600.0" r="2.0" stroke="#000000" stroke-width="4.0" fill="#000000" />
</g>
<g>
<text text-anchor="end" x="1617.0" y="629.0" fill="#000000" style="font-size:24px">0</text>
<circle cx="1620.0" cy="620.0" r="2.0" stroke="#000000" stroke-width="4.0" fill="#000000" />
</g>
<g>
<path d="M 1800,600 L 1814,608 L 1814,592 Z" stroke="#000000" stroke-width="4.0" fill="none"/>
<text text-anchor="start" x="1819.0" y="606.75" fill="#000000" style="font-size:18px">uartReadyT</text>
<circle cx="1800.0" cy="600.0" r="2.0" stroke="#000000" stroke-width="4.0" fill="#000000" />
</g>
<g>
<path d="M 1880,300 L 1872,314 L 1888,314 Z" stroke="#000000" stroke-width="4.0" fill="none"/>
<text text-anchor="end" x="1880.0" y="325.75" fill="#000000" style="font-size:18px" transform="rotate(-90,1880.0,319.0)" >uartReadyT</text>
<circle cx="1880.0" cy="300.0" r="2.0" stroke="#000000" stroke-width="4.0" fill="#000000" />
</g>
<g>
<path d="M 2140,280 L 2154,288 L 2154,272 Z" stroke="#000000" stroke-width="4.0" fill="none"/>
<text text-anchor="start" x="2159.0" y="286.75" fill="#000000" style="font-size:18px">wUARTRegT</text>
<circle cx="2140.0" cy="280.0" r="2.0" stroke="#000000" stroke-width="4.0" fill="#000000" />
</g>
<g>
<path d="M 1640,640 L 1626,632 L 1626,648 Z" stroke="#000000" stroke-width="4.0" fill="none"/>
<text text-anchor="end" x="1621.0" y="646.75" fill="#000000" style="font-size:18px">wUARTRegT</text>
<circle cx="1640.0" cy="640.0" r="2.0" stroke="#000000" stroke-width="4.0" fill="#000000" />
</g>
</g>
</svg>