<?xml version="1.0" encoding="UTF-8" standalone="no"?>
<!-- Created with Digital by H.Neemann -->
<!-- created: Sat Apr 27 17:18:46 CEST 2024 -->

<svg
   xmlns:svg="http://www.w3.org/2000/svg"
   xmlns="http://www.w3.org/2000/svg"
   width="397.5mm"
   height="126.6mm"
   viewBox="-242 -82 2650 844">
<g stroke-linecap="square">
<path d="M 2100,540 L 2110,540 L 2120,540" stroke="#000000" stroke-width="4.0" fill="none"/>
<path d="M 2120,560 L 2110,560" stroke="#000000" stroke-width="4.0" fill="none"/>
<path d="M 1080,0 L 1100,0" stroke="#000000" stroke-width="4.0" fill="none"/>
<path d="M 1260,0 L 1280,0" stroke="#000000" stroke-width="4.0" fill="none"/>
<path d="M 1920,320 L 1940,320" stroke="#000000" stroke-width="4.0" fill="none"/>
<path d="M 900,260 L 1000,260" stroke="#000000" stroke-width="4.0" fill="none"/>
<path d="M 1280,260 L 1300,260" stroke="#000000" stroke-width="4.0" fill="none"/>
<path d="M 2020,260 L 2040,260" stroke="#000000" stroke-width="4.0" fill="none"/>
<path d="M 1580,260 L 1600,260" stroke="#000000" stroke-width="4.0" fill="none"/>
<path d="M 900,200 L 1300,200" stroke="#000000" stroke-width="4.0" fill="none"/>
<path d="M 1580,200 L 1620,200 L 2040,200" stroke="#000000" stroke-width="4.0" fill="none"/>
<path d="M 320,200 L 680,200" stroke="#000000" stroke-width="4.0" fill="none"/>
<path d="M 2280,200 L 2400,200 L 2400,760 L 1140,760 L 1140,280 L 1300,280" stroke="#000000" stroke-width="4.0" fill="none"/>
<path d="M 80,360 L 100,360" stroke="#000000" stroke-width="4.0" fill="none"/>
<path d="M 1580,360 L 1600,360" stroke="#000000" stroke-width="4.0" fill="none"/>
<path d="M 300,520 L 340,520" stroke="#000000" stroke-width="4.0" fill="none"/>
<path d="M 1920,620 L 1940,620" stroke="#000000" stroke-width="4.0" fill="none"/>
<path d="M 1740,620 L 1760,620" stroke="#000000" stroke-width="4.0" fill="none"/>
<path d="M 900,240 L 1000,240" stroke="#000000" stroke-width="4.0" fill="none"/>
<path d="M 1280,240 L 1300,240" stroke="#000000" stroke-width="4.0" fill="none"/>
<path d="M 1980,300 L 1980,240 L 2040,240" stroke="#000000" stroke-width="4.0" fill="none"/>
<path d="M 1580,240 L 1600,240" stroke="#000000" stroke-width="4.0" fill="none"/>
<path d="M 1580,400 L 1600,400" stroke="#000000" stroke-width="4.0" fill="none"/>
<path d="M 300,500 L 340,500" stroke="#000000" stroke-width="4.0" fill="none"/>
<path d="M -60,500 L 80,500" stroke="#000000" stroke-width="4.0" fill="none"/>
<path d="M 1260,20 L 1280,20" stroke="#000000" stroke-width="4.0" fill="none"/>
<path d="M 1580,340 L 1700,340 L 1700,660 L 1760,660" stroke="#000000" stroke-width="4.0" fill="none"/>
<path d="M 1920,280 L 1940,280" stroke="#000000" stroke-width="4.0" fill="none"/>
<path d="M 2020,300 L 2020,280 L 2040,280" stroke="#000000" stroke-width="4.0" fill="none"/>
<path d="M 2280,220 L 2300,220" stroke="#000000" stroke-width="4.0" fill="none"/>
<path d="M 2020,220 L 2040,220" stroke="#000000" stroke-width="4.0" fill="none"/>
<path d="M 1280,220 L 1300,220" stroke="#000000" stroke-width="4.0" fill="none"/>
<path d="M 900,220 L 1000,220" stroke="#000000" stroke-width="4.0" fill="none"/>
<path d="M 1580,220 L 1600,220" stroke="#000000" stroke-width="4.0" fill="none"/>
<path d="M 1580,380 L 1600,380" stroke="#000000" stroke-width="4.0" fill="none"/>
<path d="M 1960,320 L 1960,360" stroke="#000000" stroke-width="4.0" fill="none"/>
<path d="M 1620,200 L 1620,-80 L -240,-80 L -240,540 L 80,540" stroke="#000000" stroke-width="4.0" fill="none"/>
<g>
<circle cx="1620.0" cy="200.0" r="4.0" stroke="#000000" stroke-width="4.0" fill="#000000" />
</g>
<g>
<path d="M 680,120 L 666,112 L 666,128 Z" stroke="#000000" stroke-width="4.0" fill="none"/>
<text text-anchor="end" x="661.0" y="126.75" fill="#000000" style="font-size:18px">clk</text>
<circle cx="680.0" cy="120.0" r="2.0" stroke="#000000" stroke-width="4.0" fill="#000000" />
</g>
<g>
<path d="M 1101,-14 L 1259,-14 L 1259,74 L 1101,74 Z" stroke="#ffffb4" stroke-width="0.0" fill="#ffffb4" fill-opacity="0.7843137254901961"/>
<path d="M 1101,-14 L 1259,-14 L 1259,74 L 1101,74 Z" stroke="#000000" stroke-width="4.0" fill="none"/>
<text text-anchor="start" x="1104.0" y="6.75" fill="#000000" style="font-size:18px">flags</text>
<text text-anchor="end" x="1256.0" y="6.75" fill="#000000" style="font-size:18px">twoRegFlag</text>
<text text-anchor="end" x="1256.0" y="26.75" fill="#000000" style="font-size:18px">extFlag1</text>
<text text-anchor="end" x="1256.0" y="46.75" fill="#000000" style="font-size:18px">flagReserved2</text>
<text text-anchor="end" x="1256.0" y="66.75" fill="#000000" style="font-size:18px">flagReserved3</text>
<text text-anchor="middle" x="1180.0" y="91.5" fill="#000000" style="font-size:18px">flag decode</text>
<circle cx="1100.0" cy="0.0" r="2.0" stroke="#000000" stroke-width="4.0" fill="#000000" />
<circle cx="1260.0" cy="0.0" r="2.0" stroke="#000000" stroke-width="4.0" fill="#000000" />
<circle cx="1260.0" cy="20.0" r="2.0" stroke="#000000" stroke-width="4.0" fill="#000000" />
<circle cx="1260.0" cy="40.0" r="2.0" stroke="#000000" stroke-width="4.0" fill="#000000" />
<circle cx="1260.0" cy="60.0" r="2.0" stroke="#000000" stroke-width="4.0" fill="#000000" />
</g>
<g>
<path d="M 1000,220 L 1014,228 L 1014,212 Z" stroke="#000000" stroke-width="4.0" fill="none"/>
<text text-anchor="start" x="1019.0" y="226.75" fill="#000000" style="font-size:18px">flags</text>
<circle cx="1000.0" cy="220.0" r="2.0" stroke="#000000" stroke-width="4.0" fill="#000000" />
</g>
<g>
<path d="M 1080,0 L 1066,-8 L 1066,8 Z" stroke="#000000" stroke-width="4.0" fill="none"/>
<text text-anchor="end" x="1061.0" y="6.75" fill="#000000" style="font-size:18px">flags</text>
<circle cx="1080.0" cy="0.0" r="2.0" stroke="#000000" stroke-width="4.0" fill="#000000" />
</g>
<g>
<path d="M 1000,240 L 1014,248 L 1014,232 Z" stroke="#000000" stroke-width="4.0" fill="none"/>
<text text-anchor="start" x="1019.0" y="246.75" fill="#000000" style="font-size:18px">firstOperand</text>
<circle cx="1000.0" cy="240.0" r="2.0" stroke="#000000" stroke-width="4.0" fill="#000000" />
</g>
<g>
<path d="M 1000,260 L 1014,268 L 1014,252 Z" stroke="#000000" stroke-width="4.0" fill="none"/>
<text text-anchor="start" x="1019.0" y="266.75" fill="#000000" style="font-size:18px">secondOperand</text>
<circle cx="1000.0" cy="260.0" r="2.0" stroke="#000000" stroke-width="4.0" fill="#000000" />
</g>
<g>
<path d="M 1280,220 L 1266,212 L 1266,228 Z" stroke="#000000" stroke-width="4.0" fill="none"/>
<text text-anchor="end" x="1261.0" y="226.75" fill="#000000" style="font-size:18px">firstOperand</text>
<circle cx="1280.0" cy="220.0" r="2.0" stroke="#000000" stroke-width="4.0" fill="#000000" />
</g>
<g>
<path d="M 1280,240 L 1266,232 L 1266,248 Z" stroke="#000000" stroke-width="4.0" fill="none"/>
<text text-anchor="end" x="1261.0" y="246.75" fill="#000000" style="font-size:18px">wDataOut</text>
<circle cx="1280.0" cy="240.0" r="2.0" stroke="#000000" stroke-width="4.0" fill="#000000" />
</g>
<g>
<path d="M 1280,260 L 1266,252 L 1266,268 Z" stroke="#000000" stroke-width="4.0" fill="none"/>
<text text-anchor="end" x="1261.0" y="266.75" fill="#000000" style="font-size:18px">twoRegFlag</text>
<circle cx="1280.0" cy="260.0" r="2.0" stroke="#000000" stroke-width="4.0" fill="#000000" />
</g>
<g>
<path d="M 1941,276 L 1979,285 L 1979,315 L 1941,324 Z" stroke="#000000" stroke-width="4.0" fill="none"/>
<text text-anchor="start" x="1943.0" y="295.5" fill="#000000" style="font-size:18px">0</text>
<circle cx="1960.0" cy="320.0" r="2.0" stroke="#000000" stroke-width="4.0" fill="#000000" />
<circle cx="1940.0" cy="280.0" r="2.0" stroke="#000000" stroke-width="4.0" fill="#000000" />
<circle cx="1940.0" cy="320.0" r="2.0" stroke="#000000" stroke-width="4.0" fill="#000000" />
<circle cx="1980.0" cy="300.0" r="2.0" stroke="#000000" stroke-width="4.0" fill="#000000" />
</g>
<g>
<path d="M 1960,360 L 1946,352 L 1946,368 Z" stroke="#000000" stroke-width="4.0" fill="none"/>
<text text-anchor="end" x="1941.0" y="366.75" fill="#000000" style="font-size:18px">twoRegFlag</text>
<circle cx="1960.0" cy="360.0" r="2.0" stroke="#000000" stroke-width="4.0" fill="#000000" />
</g>
<g>
<path d="M 1920,280 L 1906,272 L 1906,288 Z" stroke="#000000" stroke-width="4.0" fill="none"/>
<text text-anchor="end" x="1901.0" y="286.75" fill="#000000" style="font-size:18px">secondOperand</text>
<circle cx="1920.0" cy="280.0" r="2.0" stroke="#000000" stroke-width="4.0" fill="#000000" />
</g>
<g>
<path d="M 1920,320 L 1906,312 L 1906,328 Z" stroke="#000000" stroke-width="4.0" fill="none"/>
<text text-anchor="end" x="1901.0" y="326.75" fill="#000000" style="font-size:18px">firstOperand</text>
<circle cx="1920.0" cy="320.0" r="2.0" stroke="#000000" stroke-width="4.0" fill="#000000" />
</g>
<g>
<path d="M 2020,220 L 2006,212 L 2006,228 Z" stroke="#000000" stroke-width="4.0" fill="none"/>
<text text-anchor="end" x="2001.0" y="226.75" fill="#000000" style="font-size:18px">secondOperand</text>
<circle cx="2020.0" cy="220.0" r="2.0" stroke="#000000" stroke-width="4.0" fill="#000000" />
</g>
<g>
<path d="M 2020,260 L 2006,252 L 2006,268 Z" stroke="#000000" stroke-width="4.0" fill="none"/>
<text text-anchor="end" x="2001.0" y="266.75" fill="#000000" style="font-size:18px">clk</text>
<circle cx="2020.0" cy="260.0" r="2.0" stroke="#000000" stroke-width="4.0" fill="#000000" />
</g>
<g>
<path d="M 2300,220 L 2314,228 L 2314,212 Z" stroke="#000000" stroke-width="4.0" fill="none"/>
<text text-anchor="start" x="2319.0" y="226.75" fill="#000000" style="font-size:18px">wDataOut</text>
<circle cx="2300.0" cy="220.0" r="2.0" stroke="#000000" stroke-width="4.0" fill="#000000" />
</g>
<g>
<path d="M 2140,20 L 2154,28 L 2154,12 Z" stroke="#000000" stroke-width="4.0" fill="none"/>
<text text-anchor="start" x="2159.0" y="26.75" fill="#000000" style="font-size:18px">clk</text>
<circle cx="2140.0" cy="20.0" r="2.0" stroke="#000000" stroke-width="4.0" fill="#000000" />
</g>
<g>
<path d="M 681,186 L 899,186 L 899,274 L 681,274 Z" stroke="#ffffb4" stroke-width="0.0" fill="#ffffb4" fill-opacity="0.7843137254901961"/>
<path d="M 681,186 L 899,186 L 899,274 L 681,274 Z" stroke="#000000" stroke-width="4.0" fill="none"/>
<text text-anchor="start" x="684.0" y="206.75" fill="#000000" style="font-size:18px">instr</text>
<text text-anchor="end" x="896.0" y="206.75" fill="#000000" style="font-size:18px">opcode</text>
<text text-anchor="end" x="896.0" y="226.75" fill="#000000" style="font-size:18px">flags</text>
<text text-anchor="end" x="896.0" y="246.75" fill="#000000" style="font-size:18px">firstOperand</text>
<text text-anchor="end" x="896.0" y="266.75" fill="#000000" style="font-size:18px">secondOperand</text>
<text text-anchor="middle" x="790.0" y="291.5" fill="#000000" style="font-size:18px">decode</text>
<circle cx="680.0" cy="200.0" r="2.0" stroke="#000000" stroke-width="4.0" fill="#000000" />
<circle cx="900.0" cy="200.0" r="2.0" stroke="#000000" stroke-width="4.0" fill="#000000" />
<circle cx="900.0" cy="220.0" r="2.0" stroke="#000000" stroke-width="4.0" fill="#000000" />
<circle cx="900.0" cy="240.0" r="2.0" stroke="#000000" stroke-width="4.0" fill="#000000" />
<circle cx="900.0" cy="260.0" r="2.0" stroke="#000000" stroke-width="4.0" fill="#000000" />
</g>
<g>
<path d="M 1301,186 L 1579,186 L 1579,434 L 1301,434 Z" stroke="#ffffb4" stroke-width="0.0" fill="#ffffb4" fill-opacity="0.7843137254901961"/>
<path d="M 1301,186 L 1579,186 L 1579,434 L 1301,434 Z" stroke="#000000" stroke-width="4.0" fill="none"/>
<text text-anchor="start" x="1304.0" y="206.75" fill="#000000" style="font-size:18px">opcode</text>
<text text-anchor="start" x="1304.0" y="226.75" fill="#000000" style="font-size:18px">firstOperand</text>
<text text-anchor="start" x="1304.0" y="246.75" fill="#000000" style="font-size:18px">secondOperand</text>
<text text-anchor="start" x="1304.0" y="266.75" fill="#000000" style="font-size:18px">twoRegFlag</text>
<text text-anchor="start" x="1304.0" y="286.75" fill="#000000" style="font-size:18px">rRegData</text>
<text text-anchor="start" x="1304.0" y="306.75" fill="#000000" style="font-size:18px">pc</text>
<text text-anchor="start" x="1304.0" y="326.75" fill="#000000" style="font-size:18px">cmp</text>
<path d="M 1301,347 L 1308,340 L 1301,333" stroke="#000000" stroke-width="2.0" fill="none"/>
<text text-anchor="start" x="1311.0" y="346.75" fill="#000000" style="font-size:18px">clk</text>
<text text-anchor="start" x="1304.0" y="366.75" fill="#000000" style="font-size:18px">extFlag1</text>
<text text-anchor="start" x="1304.0" y="386.75" fill="#000000" style="font-size:18px">rRamData</text>
<text text-anchor="start" x="1304.0" y="406.75" fill="#000000" style="font-size:18px">secondOperandLit</text>
<text text-anchor="start" x="1304.0" y="426.75" fill="#000000" style="font-size:18px">SSF</text>
<text text-anchor="end" x="1576.0" y="206.75" fill="#000000" style="font-size:18px">result</text>
<text text-anchor="end" x="1576.0" y="226.75" fill="#000000" style="font-size:18px">carryFlag</text>
<text text-anchor="end" x="1576.0" y="246.75" fill="#000000" style="font-size:18px">jmpAddr</text>
<text text-anchor="end" x="1576.0" y="266.75" fill="#000000" style="font-size:18px">jmpFlag</text>
<text text-anchor="end" x="1576.0" y="286.75" fill="#000000" style="font-size:18px">wRamEnable</text>
<text text-anchor="end" x="1576.0" y="306.75" fill="#000000" style="font-size:18px">rwRamAddr</text>
<text text-anchor="end" x="1576.0" y="326.75" fill="#000000" style="font-size:18px">wRamData</text>
<text text-anchor="end" x="1576.0" y="346.75" fill="#000000" style="font-size:18px">wUARTFlag</text>
<text text-anchor="end" x="1576.0" y="366.75" fill="#000000" style="font-size:18px">RAMRequestFlag</text>
<text text-anchor="end" x="1576.0" y="386.75" fill="#000000" style="font-size:18px">wIntData</text>
<text text-anchor="end" x="1576.0" y="406.75" fill="#000000" style="font-size:18px">wIntFlag</text>
<text text-anchor="middle" x="1440.0" y="451.5" fill="#000000" style="font-size:18px">execute</text>
<circle cx="1300.0" cy="200.0" r="2.0" stroke="#000000" stroke-width="4.0" fill="#000000" />
<circle cx="1300.0" cy="220.0" r="2.0" stroke="#000000" stroke-width="4.0" fill="#000000" />
<circle cx="1300.0" cy="240.0" r="2.0" stroke="#000000" stroke-width="4.0" fill="#000000" />
<circle cx="1300.0" cy="260.0" r="2.0" stroke="#000000" stroke-width="4.0" fill="#000000" />
<circle cx="1300.0" cy="280.0" r="2.0" stroke="#000000" stroke-width="4.0" fill="#000000" />
<circle cx="1300.0" cy="300.0" r="2.0" stroke="#000000" stroke-width="4.0" fill="#000000" />
<circle cx="1300.0" cy="320.0" r="2.0" stroke="#000000" stroke-width="4.0" fill="#000000" />
<circle cx="1300.0" cy="340.0" r="2.0" stroke="#000000" stroke-width="4.0" fill="#000000" />
<circle cx="1300.0" cy="360.0" r="2.0" stroke="#000000" stroke-width="4.0" fill="#000000" />
<circle cx="1300.0" cy="380.0" r="2.0" stroke="#000000" stroke-width="4.0" fill="#000000" />
<circle cx="1300.0" cy="400.0" r="2.0" stroke="#000000" stroke-width="4.0" fill="#000000" />
<circle cx="1300.0" cy="420.0" r="2.0" stroke="#000000" stroke-width="4.0" fill="#000000" />
<circle cx="1580.0" cy="200.0" r="2.0" stroke="#000000" stroke-width="4.0" fill="#000000" />
<circle cx="1580.0" cy="220.0" r="2.0" stroke="#000000" stroke-width="4.0" fill="#000000" />
<circle cx="1580.0" cy="240.0" r="2.0" stroke="#000000" stroke-width="4.0" fill="#000000" />
<circle cx="1580.0" cy="260.0" r="2.0" stroke="#000000" stroke-width="4.0" fill="#000000" />
<circle cx="1580.0" cy="280.0" r="2.0" stroke="#000000" stroke-width="4.0" fill="#000000" />
<circle cx="1580.0" cy="300.0" r="2.0" stroke="#000000" stroke-width="4.0" fill="#000000" />
<circle cx="1580.0" cy="320.0" r="2.0" stroke="#000000" stroke-width="4.0" fill="#000000" />
<circle cx="1580.0" cy="340.0" r="2.0" stroke="#000000" stroke-width="4.0" fill="#000000" />
<circle cx="1580.0" cy="360.0" r="2.0" stroke="#000000" stroke-width="4.0" fill="#000000" />
<circle cx="1580.0" cy="380.0" r="2.0" stroke="#000000" stroke-width="4.0" fill="#000000" />
<circle cx="1580.0" cy="400.0" r="2.0" stroke="#000000" stroke-width="4.0" fill="#000000" />
</g>
<g>
<path d="M 1600,220 L 1614,228 L 1614,212 Z" stroke="#000000" stroke-width="4.0" fill="none"/>
<text text-anchor="start" x="1619.0" y="226.75" fill="#000000" style="font-size:18px">carryFlag</text>
<circle cx="1600.0" cy="220.0" r="2.0" stroke="#000000" stroke-width="4.0" fill="#000000" />
</g>
<g>
<path d="M 1300,300 L 1286,292 L 1286,308 Z" stroke="#000000" stroke-width="4.0" fill="none"/>
<text text-anchor="end" x="1281.0" y="306.75" fill="#000000" style="font-size:18px">pc</text>
<circle cx="1300.0" cy="300.0" r="2.0" stroke="#000000" stroke-width="4.0" fill="#000000" />
</g>
<g>
<path d="M 1600,240 L 1614,248 L 1614,232 Z" stroke="#000000" stroke-width="4.0" fill="none"/>
<text text-anchor="start" x="1619.0" y="246.75" fill="#000000" style="font-size:18px">jmpAddr</text>
<circle cx="1600.0" cy="240.0" r="2.0" stroke="#000000" stroke-width="4.0" fill="#000000" />
</g>
<g>
<path d="M 1600,260 L 1614,268 L 1614,252 Z" stroke="#000000" stroke-width="4.0" fill="none"/>
<text text-anchor="start" x="1619.0" y="266.75" fill="#000000" style="font-size:18px">jmpFlag</text>
<circle cx="1600.0" cy="260.0" r="2.0" stroke="#000000" stroke-width="4.0" fill="#000000" />
</g>
<g>
<path d="M 1280,0 L 1294,8 L 1294,-8 Z" stroke="#000000" stroke-width="4.0" fill="none"/>
<text text-anchor="start" x="1299.0" y="6.75" fill="#000000" style="font-size:18px">twoRegFlag</text>
<circle cx="1280.0" cy="0.0" r="2.0" stroke="#000000" stroke-width="4.0" fill="#000000" />
</g>
<g>
<path d="M 2280,240 L 2294,248 L 2294,232 Z" stroke="#000000" stroke-width="4.0" fill="none"/>
<text text-anchor="start" x="2299.0" y="246.75" fill="#000000" style="font-size:18px">cmp</text>
<circle cx="2280.0" cy="240.0" r="2.0" stroke="#000000" stroke-width="4.0" fill="#000000" />
</g>
<g>
<path d="M 2280,260 L 2294,268 L 2294,252 Z" stroke="#000000" stroke-width="4.0" fill="none"/>
<text text-anchor="start" x="2299.0" y="266.75" fill="#000000" style="font-size:18px">ret</text>
<circle cx="2280.0" cy="260.0" r="2.0" stroke="#000000" stroke-width="4.0" fill="#000000" />
</g>
<g>
<path d="M 1300,320 L 1286,312 L 1286,328 Z" stroke="#000000" stroke-width="4.0" fill="none"/>
<text text-anchor="end" x="1281.0" y="326.75" fill="#000000" style="font-size:18px">cmp</text>
<circle cx="1300.0" cy="320.0" r="2.0" stroke="#000000" stroke-width="4.0" fill="#000000" />
</g>
<g>
<path d="M 681,46 L 799,46 L 799,154 L 681,154 Z" stroke="#ffffb4" stroke-width="0.0" fill="#ffffb4" fill-opacity="0.7843137254901961"/>
<path d="M 681,46 L 799,46 L 799,154 L 681,154 Z" stroke="#000000" stroke-width="4.0" fill="none"/>
<text text-anchor="start" x="684.0" y="66.75" fill="#000000" style="font-size:18px">jmpAddr</text>
<text text-anchor="start" x="684.0" y="86.75" fill="#000000" style="font-size:18px">jmpFlag</text>
<path d="M 681,127 L 688,120 L 681,113" stroke="#000000" stroke-width="2.0" fill="none"/>
<text text-anchor="start" x="691.0" y="126.75" fill="#000000" style="font-size:18px">clk</text>
<text text-anchor="start" x="684.0" y="146.75" fill="#000000" style="font-size:18px">waitFlag</text>
<text text-anchor="end" x="796.0" y="106.75" fill="#000000" style="font-size:18px">pc</text>
<text text-anchor="middle" x="740.0" y="171.5" fill="#000000" style="font-size:18px">fetch</text>
<circle cx="680.0" cy="60.0" r="2.0" stroke="#000000" stroke-width="4.0" fill="#000000" />
<circle cx="680.0" cy="80.0" r="2.0" stroke="#000000" stroke-width="4.0" fill="#000000" />
<circle cx="680.0" cy="120.0" r="2.0" stroke="#000000" stroke-width="4.0" fill="#000000" />
<circle cx="680.0" cy="140.0" r="2.0" stroke="#000000" stroke-width="4.0" fill="#000000" />
<circle cx="800.0" cy="100.0" r="2.0" stroke="#000000" stroke-width="4.0" fill="#000000" />
</g>
<g>
<path d="M 800,100 L 814,108 L 814,92 Z" stroke="#000000" stroke-width="4.0" fill="none"/>
<text text-anchor="start" x="819.0" y="106.75" fill="#000000" style="font-size:18px">pc</text>
<circle cx="800.0" cy="100.0" r="2.0" stroke="#000000" stroke-width="4.0" fill="#000000" />
</g>
<g>
<path d="M 1300,340 L 1286,332 L 1286,348 Z" stroke="#000000" stroke-width="4.0" fill="none"/>
<text text-anchor="end" x="1281.0" y="346.75" fill="#000000" style="font-size:18px">clk</text>
<circle cx="1300.0" cy="340.0" r="2.0" stroke="#000000" stroke-width="4.0" fill="#000000" />
</g>
<g>
<path d="M 1280,20 L 1294,28 L 1294,12 Z" stroke="#000000" stroke-width="4.0" fill="none"/>
<text text-anchor="start" x="1299.0" y="26.75" fill="#000000" style="font-size:18px">extFlag1T</text>
<circle cx="1280.0" cy="20.0" r="2.0" stroke="#000000" stroke-width="4.0" fill="#000000" />
</g>
<g>
<path d="M 1300,360 L 1286,352 L 1286,368 Z" stroke="#000000" stroke-width="4.0" fill="none"/>
<text text-anchor="end" x="1281.0" y="366.75" fill="#000000" style="font-size:18px">extFlag1T</text>
<circle cx="1300.0" cy="360.0" r="2.0" stroke="#000000" stroke-width="4.0" fill="#000000" />
</g>
<g>
<path d="M 2109,5 L 2139,5 L 2139,35 L 2109,35 Z" stroke="#000000" stroke-width="4.0" fill="none"/>
<text text-anchor="end" x="2095.0" y="29.0" fill="#000000" style="font-size:24px"><tspan style="font-style:italic;">clk</tspan></text>
<path d="M 2115,25 L 2120,25 L 2120,15 L 2125,15 L 2125,25 L 2130,25 L 2130,15 L 2135,15" stroke="#000000" stroke-width="2.0" fill="none"/>
<circle cx="2140.0" cy="20.0" r="2.0" stroke="#000000" stroke-width="4.0" fill="#000000" />
</g>
<g>
<path d="M 2041,186 L 2279,186 L 2279,314 L 2041,314 Z" stroke="#ffffb4" stroke-width="0.0" fill="#ffffb4" fill-opacity="0.7843137254901961"/>
<path d="M 2041,186 L 2279,186 L 2279,314 L 2041,314 Z" stroke="#000000" stroke-width="4.0" fill="none"/>
<text text-anchor="start" x="2044.0" y="206.75" fill="#000000" style="font-size:18px">wRegData</text>
<text text-anchor="start" x="2044.0" y="226.75" fill="#000000" style="font-size:18px">wRegAddr</text>
<text text-anchor="start" x="2044.0" y="246.75" fill="#000000" style="font-size:18px">rRegAddr</text>
<path d="M 2041,267 L 2048,260 L 2041,253" stroke="#000000" stroke-width="2.0" fill="none"/>
<text text-anchor="start" x="2051.0" y="266.75" fill="#000000" style="font-size:18px">clk</text>
<text text-anchor="start" x="2044.0" y="286.75" fill="#000000" style="font-size:18px">UARTReady</text>
<text text-anchor="end" x="2276.0" y="206.75" fill="#000000" style="font-size:18px">rRegData</text>
<text text-anchor="end" x="2276.0" y="226.75" fill="#000000" style="font-size:18px">wDataOut</text>
<text text-anchor="end" x="2276.0" y="246.75" fill="#000000" style="font-size:18px">cmp</text>
<text text-anchor="end" x="2276.0" y="266.75" fill="#000000" style="font-size:18px">ret</text>
<text text-anchor="end" x="2276.0" y="286.75" fill="#000000" style="font-size:18px">wUARTReg</text>
<text text-anchor="end" x="2276.0" y="306.75" fill="#000000" style="font-size:18px">SSF</text>
<text text-anchor="middle" x="2160.0" y="331.5" fill="#000000" style="font-size:18px">registerFile</text>
<circle cx="2040.0" cy="200.0" r="2.0" stroke="#000000" stroke-width="4.0" fill="#000000" />
<circle cx="2040.0" cy="220.0" r="2.0" stroke="#000000" stroke-width="4.0" fill="#000000" />
<circle cx="2040.0" cy="240.0" r="2.0" stroke="#000000" stroke-width="4.0" fill="#000000" />
<circle cx="2040.0" cy="260.0" r="2.0" stroke="#000000" stroke-width="4.0" fill="#000000" />
<circle cx="2040.0" cy="280.0" r="2.0" stroke="#000000" stroke-width="4.0" fill="#000000" />
<circle cx="2280.0" cy="200.0" r="2.0" stroke="#000000" stroke-width="4.0" fill="#000000" />
<circle cx="2280.0" cy="220.0" r="2.0" stroke="#000000" stroke-width="4.0" fill="#000000" />
<circle cx="2280.0" cy="240.0" r="2.0" stroke="#000000" stroke-width="4.0" fill="#000000" />
<circle cx="2280.0" cy="260.0" r="2.0" stroke="#000000" stroke-width="4.0" fill="#000000" />
<circle cx="2280.0" cy="280.0" r="2.0" stroke="#000000" stroke-width="4.0" fill="#000000" />
<circle cx="2280.0" cy="300.0" r="2.0" stroke="#000000" stroke-width="4.0" fill="#000000" />
</g>
<g>
<circle cx="1956.0" cy="620.0" r="9.0" stroke="#000000" stroke-width="4.0" fill="none" />
<circle cx="1956.0" cy="620.0" r="15.0" stroke="#000000" stroke-width="4.0" fill="none" />
<text text-anchor="start" x="1985.0" y="629.0" fill="#000000" style="font-size:24px"><tspan style="font-style:italic;">UART<tspan style="font-size:80%;baseline-shift:sub;">txPin</tspan></tspan></text>
<circle cx="1940.0" cy="620.0" r="2.0" stroke="#000000" stroke-width="4.0" fill="#000000" />
</g>
<g>
<path d="M 1580,300 L 1594,308 L 1594,292 Z" stroke="#000000" stroke-width="4.0" fill="none"/>
<text text-anchor="start" x="1599.0" y="306.75" fill="#000000" style="font-size:18px">rwRamAddrT</text>
<circle cx="1580.0" cy="300.0" r="2.0" stroke="#000000" stroke-width="4.0" fill="#000000" />
</g>
<g>
<path d="M 1300,400 L 1286,392 L 1286,408 Z" stroke="#000000" stroke-width="4.0" fill="none"/>
<text text-anchor="end" x="1281.0" y="406.75" fill="#000000" style="font-size:18px">secondOperand</text>
<circle cx="1300.0" cy="400.0" r="2.0" stroke="#000000" stroke-width="4.0" fill="#000000" />
</g>
<g>
<path d="M 1761,590 L 1919,590 L 1919,670 L 1761,670 Z" stroke="#000000" stroke-width="4.0" fill="none"/>
<text text-anchor="middle" x="1840.0" y="582.0" fill="#000000" style="font-size:24px">uart_tx</text>
<text text-anchor="start" x="1764.0" y="606.75" fill="#000000" style="font-size:18px">clk</text>
<text text-anchor="start" x="1764.0" y="626.75" fill="#000000" style="font-size:18px">rst_n</text>
<text text-anchor="start" x="1764.0" y="646.75" fill="#000000" style="font-size:18px">tx_data</text>
<text text-anchor="start" x="1764.0" y="666.75" fill="#000000" style="font-size:18px">tx_data_valid</text>
<text text-anchor="end" x="1916.0" y="606.75" fill="#000000" style="font-size:18px">tx_data_ready</text>
<text text-anchor="end" x="1916.0" y="626.75" fill="#000000" style="font-size:18px">tx_pin</text>
<text text-anchor="middle" x="1840.0" y="687.5" fill="#000000" style="font-size:18px">External</text>
<circle cx="1760.0" cy="600.0" r="2.0" stroke="#000000" stroke-width="4.0" fill="#000000" />
<circle cx="1760.0" cy="620.0" r="2.0" stroke="#000000" stroke-width="4.0" fill="#000000" />
<circle cx="1760.0" cy="640.0" r="2.0" stroke="#000000" stroke-width="4.0" fill="#000000" />
<circle cx="1760.0" cy="660.0" r="2.0" stroke="#000000" stroke-width="4.0" fill="#000000" />
<circle cx="1920.0" cy="600.0" r="2.0" stroke="#000000" stroke-width="4.0" fill="#000000" />
<circle cx="1920.0" cy="620.0" r="2.0" stroke="#000000" stroke-width="4.0" fill="#000000" />
</g>
<g>
<path d="M 1760,600 L 1746,592 L 1746,608 Z" stroke="#000000" stroke-width="4.0" fill="none"/>
<text text-anchor="end" x="1741.0" y="606.75" fill="#000000" style="font-size:18px">clk</text>
<circle cx="1760.0" cy="600.0" r="2.0" stroke="#000000" stroke-width="4.0" fill="#000000" />
</g>
<g>
<text text-anchor="end" x="1737.0" y="629.0" fill="#000000" style="font-size:24px">0</text>
<circle cx="1740.0" cy="620.0" r="2.0" stroke="#000000" stroke-width="4.0" fill="#000000" />
</g>
<g>
<path d="M 1920,600 L 1934,608 L 1934,592 Z" stroke="#000000" stroke-width="4.0" fill="none"/>
<text text-anchor="start" x="1939.0" y="606.75" fill="#000000" style="font-size:18px">uartReadyT</text>
<circle cx="1920.0" cy="600.0" r="2.0" stroke="#000000" stroke-width="4.0" fill="#000000" />
</g>
<g>
<path d="M 2020,300 L 2012,314 L 2028,314 Z" stroke="#000000" stroke-width="4.0" fill="none"/>
<text text-anchor="end" x="2020.0" y="325.75" fill="#000000" style="font-size:18px" transform="rotate(-90,2020.0,319.0)" >uartReadyT</text>
<circle cx="2020.0" cy="300.0" r="2.0" stroke="#000000" stroke-width="4.0" fill="#000000" />
</g>
<g>
<path d="M 2280,280 L 2294,288 L 2294,272 Z" stroke="#000000" stroke-width="4.0" fill="none"/>
<text text-anchor="start" x="2299.0" y="286.75" fill="#000000" style="font-size:18px">wUARTRegT</text>
<circle cx="2280.0" cy="280.0" r="2.0" stroke="#000000" stroke-width="4.0" fill="#000000" />
</g>
<g>
<path d="M 1760,640 L 1746,632 L 1746,648 Z" stroke="#000000" stroke-width="4.0" fill="none"/>
<text text-anchor="end" x="1741.0" y="646.75" fill="#000000" style="font-size:18px">wUARTRegT</text>
<circle cx="1760.0" cy="640.0" r="2.0" stroke="#000000" stroke-width="4.0" fill="#000000" />
</g>
<g>
<circle cx="2176.0" cy="540.0" r="9.0" stroke="#000000" stroke-width="4.0" fill="none" />
<circle cx="2176.0" cy="540.0" r="15.0" stroke="#000000" stroke-width="4.0" fill="none" />
<text text-anchor="start" x="2205.0" y="549.0" fill="#000000" style="font-size:24px"><tspan style="font-style:italic;">wuart<tspan style="font-size:80%;baseline-shift:sub;">dbg</tspan></tspan></text>
<circle cx="2160.0" cy="540.0" r="2.0" stroke="#000000" stroke-width="4.0" fill="#000000" />
</g>
<g>
<path d="M 2100,540 L 2086,532 L 2086,548 Z" stroke="#000000" stroke-width="4.0" fill="none"/>
<text text-anchor="end" x="2081.0" y="546.75" fill="#000000" style="font-size:18px">wUARTRegT</text>
<circle cx="2100.0" cy="540.0" r="2.0" stroke="#000000" stroke-width="4.0" fill="#000000" />
</g>
<g>
<text text-anchor="end" x="2098.0" y="537.0" fill="#000000" style="font-size:12px">0-7</text>
<text text-anchor="start" x="2122.0" y="537.0" fill="#000000" style="font-size:12px">0</text>
<text text-anchor="start" x="2122.0" y="557.0" fill="#000000" style="font-size:12px">1-7</text>
<path d="M 2108,538 L 2112,538 L 2112,562 L 2108,562 Z" stroke="#000000" stroke-width="4.0" fill="#000000" fill-opacity="1.0"/>
<circle cx="2100.0" cy="540.0" r="2.0" stroke="#000000" stroke-width="4.0" fill="#000000" />
<circle cx="2120.0" cy="540.0" r="2.0" stroke="#000000" stroke-width="4.0" fill="#000000" />
<circle cx="2120.0" cy="560.0" r="2.0" stroke="#000000" stroke-width="4.0" fill="#000000" />
</g>
<g>
<path d="M 2121,528 L 2139,540 L 2121,552 Z" stroke="#000000" stroke-width="4.0" fill="none"/>
<circle cx="2150.0" cy="540.0" r="9.0" stroke="#000000" stroke-width="4.0" fill="none" />
<circle cx="2120.0" cy="540.0" r="2.0" stroke="#000000" stroke-width="4.0" fill="#000000" />
<circle cx="2160.0" cy="540.0" r="2.0" stroke="#000000" stroke-width="4.0" fill="#000000" />
</g>
<g>
<path d="M 680,140 L 666,132 L 666,148 Z" stroke="#000000" stroke-width="4.0" fill="none"/>
<text text-anchor="end" x="661.0" y="146.75" fill="#000000" style="font-size:18px">waitFlagT</text>
<circle cx="680.0" cy="140.0" r="2.0" stroke="#000000" stroke-width="4.0" fill="#000000" />
</g>
<g>
<path d="M 1580,280 L 1594,288 L 1594,272 Z" stroke="#000000" stroke-width="4.0" fill="none"/>
<text text-anchor="start" x="1599.0" y="286.75" fill="#000000" style="font-size:18px">wRamEnableT</text>
<circle cx="1580.0" cy="280.0" r="2.0" stroke="#000000" stroke-width="4.0" fill="#000000" />
</g>
<g>
<path d="M 1580,320 L 1594,328 L 1594,312 Z" stroke="#000000" stroke-width="4.0" fill="none"/>
<text text-anchor="start" x="1599.0" y="326.75" fill="#000000" style="font-size:18px">wRamDataT</text>
<circle cx="1580.0" cy="320.0" r="2.0" stroke="#000000" stroke-width="4.0" fill="#000000" />
</g>
<g>
<path d="M 1300,380 L 1286,372 L 1286,388 Z" stroke="#000000" stroke-width="4.0" fill="none"/>
<text text-anchor="end" x="1281.0" y="386.75" fill="#000000" style="font-size:18px">rRamDataT</text>
<circle cx="1300.0" cy="380.0" r="2.0" stroke="#000000" stroke-width="4.0" fill="#000000" />
</g>
<g>
<path d="M 101,166 L 319,166 L 319,294 L 101,294 Z" stroke="#ffffb4" stroke-width="0.0" fill="#ffffb4" fill-opacity="0.7843137254901961"/>
<path d="M 101,166 L 319,166 L 319,294 L 101,294 Z" stroke="#000000" stroke-width="4.0" fill="none"/>
<text text-anchor="start" x="104.0" y="186.75" fill="#000000" style="font-size:18px">rwRamAddr</text>
<path d="M 101,207 L 108,200 L 101,193" stroke="#000000" stroke-width="2.0" fill="none"/>
<text text-anchor="start" x="111.0" y="206.75" fill="#000000" style="font-size:18px">clk</text>
<text text-anchor="start" x="104.0" y="226.75" fill="#000000" style="font-size:18px">wRAMEnabled</text>
<text text-anchor="start" x="104.0" y="246.75" fill="#000000" style="font-size:18px">wRamData</text>
<text text-anchor="start" x="104.0" y="266.75" fill="#000000" style="font-size:18px">pc</text>
<text text-anchor="start" x="104.0" y="286.75" fill="#000000" style="font-size:18px">SSF</text>
<text text-anchor="end" x="316.0" y="186.75" fill="#000000" style="font-size:18px">rRAMData</text>
<text text-anchor="end" x="316.0" y="206.75" fill="#000000" style="font-size:18px">instr</text>
<text text-anchor="middle" x="210.0" y="311.5" fill="#000000" style="font-size:18px">mmu</text>
<circle cx="100.0" cy="180.0" r="2.0" stroke="#000000" stroke-width="4.0" fill="#000000" />
<circle cx="100.0" cy="200.0" r="2.0" stroke="#000000" stroke-width="4.0" fill="#000000" />
<circle cx="100.0" cy="220.0" r="2.0" stroke="#000000" stroke-width="4.0" fill="#000000" />
<circle cx="100.0" cy="240.0" r="2.0" stroke="#000000" stroke-width="4.0" fill="#000000" />
<circle cx="100.0" cy="260.0" r="2.0" stroke="#000000" stroke-width="4.0" fill="#000000" />
<circle cx="100.0" cy="280.0" r="2.0" stroke="#000000" stroke-width="4.0" fill="#000000" />
<circle cx="320.0" cy="180.0" r="2.0" stroke="#000000" stroke-width="4.0" fill="#000000" />
<circle cx="320.0" cy="200.0" r="2.0" stroke="#000000" stroke-width="4.0" fill="#000000" />
</g>
<g>
<path d="M 320,180 L 334,188 L 334,172 Z" stroke="#000000" stroke-width="4.0" fill="none"/>
<text text-anchor="start" x="339.0" y="186.75" fill="#000000" style="font-size:18px">rRamDataT</text>
<circle cx="320.0" cy="180.0" r="2.0" stroke="#000000" stroke-width="4.0" fill="#000000" />
</g>
<g>
<path d="M 100,200 L 86,192 L 86,208 Z" stroke="#000000" stroke-width="4.0" fill="none"/>
<text text-anchor="end" x="81.0" y="206.75" fill="#000000" style="font-size:18px">clk</text>
<circle cx="100.0" cy="200.0" r="2.0" stroke="#000000" stroke-width="4.0" fill="#000000" />
</g>
<g>
<path d="M 100,180 L 86,172 L 86,188 Z" stroke="#000000" stroke-width="4.0" fill="none"/>
<text text-anchor="end" x="81.0" y="186.75" fill="#000000" style="font-size:18px">rwRamAddrT</text>
<circle cx="100.0" cy="180.0" r="2.0" stroke="#000000" stroke-width="4.0" fill="#000000" />
</g>
<g>
<path d="M 100,220 L 86,212 L 86,228 Z" stroke="#000000" stroke-width="4.0" fill="none"/>
<text text-anchor="end" x="81.0" y="226.75" fill="#000000" style="font-size:18px">wRamEnableT</text>
<circle cx="100.0" cy="220.0" r="2.0" stroke="#000000" stroke-width="4.0" fill="#000000" />
</g>
<g>
<path d="M 100,240 L 86,232 L 86,248 Z" stroke="#000000" stroke-width="4.0" fill="none"/>
<text text-anchor="end" x="81.0" y="246.75" fill="#000000" style="font-size:18px">wRamDataT</text>
<circle cx="100.0" cy="240.0" r="2.0" stroke="#000000" stroke-width="4.0" fill="#000000" />
</g>
<g>
<path d="M 100,260 L 86,252 L 86,268 Z" stroke="#000000" stroke-width="4.0" fill="none"/>
<text text-anchor="end" x="81.0" y="266.75" fill="#000000" style="font-size:18px">pc</text>
<circle cx="100.0" cy="260.0" r="2.0" stroke="#000000" stroke-width="4.0" fill="#000000" />
</g>
<g>
<path d="M 101,350 L 259,350 L 259,410 L 101,410 Z" stroke="#000000" stroke-width="4.0" fill="none"/>
<text text-anchor="middle" x="180.0" y="342.0" fill="#000000" style="font-size:24px">Timer</text>
<text text-anchor="start" x="104.0" y="366.75" fill="#000000" style="font-size:18px">waitTime</text>
<text text-anchor="start" x="104.0" y="386.75" fill="#000000" style="font-size:18px">clk</text>
<text text-anchor="start" x="104.0" y="406.75" fill="#000000" style="font-size:18px">en</text>
<text text-anchor="end" x="256.0" y="386.75" fill="#000000" style="font-size:18px">waitFlag</text>
<text text-anchor="middle" x="180.0" y="427.5" fill="#000000" style="font-size:18px">External</text>
<circle cx="100.0" cy="360.0" r="2.0" stroke="#000000" stroke-width="4.0" fill="#000000" />
<circle cx="100.0" cy="380.0" r="2.0" stroke="#000000" stroke-width="4.0" fill="#000000" />
<circle cx="100.0" cy="400.0" r="2.0" stroke="#000000" stroke-width="4.0" fill="#000000" />
<circle cx="260.0" cy="380.0" r="2.0" stroke="#000000" stroke-width="4.0" fill="#000000" />
</g>
<g>
<path d="M 260,380 L 274,388 L 274,372 Z" stroke="#000000" stroke-width="4.0" fill="none"/>
<text text-anchor="start" x="279.0" y="386.75" fill="#000000" style="font-size:18px">waitFlagT</text>
<circle cx="260.0" cy="380.0" r="2.0" stroke="#000000" stroke-width="4.0" fill="#000000" />
</g>
<g>
<text text-anchor="end" x="77.0" y="369.0" fill="#000000" style="font-size:24px">2</text>
<circle cx="80.0" cy="360.0" r="2.0" stroke="#000000" stroke-width="4.0" fill="#000000" />
</g>
<g>
<path d="M 100,380 L 86,372 L 86,388 Z" stroke="#000000" stroke-width="4.0" fill="none"/>
<text text-anchor="end" x="81.0" y="386.75" fill="#000000" style="font-size:18px">clk</text>
<circle cx="100.0" cy="380.0" r="2.0" stroke="#000000" stroke-width="4.0" fill="#000000" />
</g>
<g>
<path d="M 1600,360 L 1614,368 L 1614,352 Z" stroke="#000000" stroke-width="4.0" fill="none"/>
<text text-anchor="start" x="1619.0" y="366.75" fill="#000000" style="font-size:18px">ramReqFlagT</text>
<circle cx="1600.0" cy="360.0" r="2.0" stroke="#000000" stroke-width="4.0" fill="#000000" />
</g>
<g>
<path d="M 100,400 L 86,392 L 86,408 Z" stroke="#000000" stroke-width="4.0" fill="none"/>
<text text-anchor="end" x="81.0" y="406.75" fill="#000000" style="font-size:18px">ramReqFlagT</text>
<circle cx="100.0" cy="400.0" r="2.0" stroke="#000000" stroke-width="4.0" fill="#000000" />
</g>
<g>
<path d="M 2280,300 L 2294,308 L 2294,292 Z" stroke="#000000" stroke-width="4.0" fill="none"/>
<text text-anchor="start" x="2299.0" y="306.75" fill="#000000" style="font-size:18px">SSFT</text>
<circle cx="2280.0" cy="300.0" r="2.0" stroke="#000000" stroke-width="4.0" fill="#000000" />
</g>
<g>
<path d="M 100,280 L 86,272 L 86,288 Z" stroke="#000000" stroke-width="4.0" fill="none"/>
<text text-anchor="end" x="81.0" y="286.75" fill="#000000" style="font-size:18px">SSFT</text>
<circle cx="100.0" cy="280.0" r="2.0" stroke="#000000" stroke-width="4.0" fill="#000000" />
</g>
<g>
<path d="M 1300,420 L 1286,412 L 1286,428 Z" stroke="#000000" stroke-width="4.0" fill="none"/>
<text text-anchor="end" x="1281.0" y="426.75" fill="#000000" style="font-size:18px">SSFT</text>
<circle cx="1300.0" cy="420.0" r="2.0" stroke="#000000" stroke-width="4.0" fill="#000000" />
</g>
<g>
<path d="M 81,486 L 299,486 L 299,634 L 81,634 Z" stroke="#ffffb4" stroke-width="0.0" fill="#ffffb4" fill-opacity="0.7843137254901961"/>
<path d="M 81,486 L 299,486 L 299,634 L 81,634 Z" stroke="#000000" stroke-width="4.0" fill="none"/>
<text text-anchor="start" x="84.0" y="506.75" fill="#000000" style="font-size:18px">interrupt</text>
<text text-anchor="start" x="84.0" y="526.75" fill="#000000" style="font-size:18px">int<tspan style="font-size:80%;baseline-shift:sub;">write</tspan></text>
<text text-anchor="start" x="84.0" y="546.75" fill="#000000" style="font-size:18px">int<tspan style="font-size:80%;baseline-shift:sub;">addr</tspan></text>
<text text-anchor="start" x="84.0" y="566.75" fill="#000000" style="font-size:18px">int<tspan style="font-size:80%;baseline-shift:sub;">value</tspan></text>
<text text-anchor="start" x="84.0" y="586.75" fill="#000000" style="font-size:18px">jmpFlag</text>
<text text-anchor="start" x="84.0" y="606.75" fill="#000000" style="font-size:18px">jmpAddr</text>
<path d="M 81,627 L 88,620 L 81,613" stroke="#000000" stroke-width="2.0" fill="none"/>
<text text-anchor="start" x="91.0" y="626.75" fill="#000000" style="font-size:18px">clk</text>
<text text-anchor="end" x="296.0" y="506.75" fill="#000000" style="font-size:18px">interrupt<tspan style="font-size:80%;baseline-shift:sub;">jmp</tspan></text>
<text text-anchor="end" x="296.0" y="526.75" fill="#000000" style="font-size:18px">interrupt<tspan style="font-size:80%;baseline-shift:sub;">signal</tspan></text>
<text text-anchor="middle" x="190.0" y="651.5" fill="#000000" style="font-size:18px">interruptHandler</text>
<circle cx="80.0" cy="500.0" r="2.0" stroke="#000000" stroke-width="4.0" fill="#000000" />
<circle cx="80.0" cy="520.0" r="2.0" stroke="#000000" stroke-width="4.0" fill="#000000" />
<circle cx="80.0" cy="540.0" r="2.0" stroke="#000000" stroke-width="4.0" fill="#000000" />
<circle cx="80.0" cy="560.0" r="2.0" stroke="#000000" stroke-width="4.0" fill="#000000" />
<circle cx="80.0" cy="580.0" r="2.0" stroke="#000000" stroke-width="4.0" fill="#000000" />
<circle cx="80.0" cy="600.0" r="2.0" stroke="#000000" stroke-width="4.0" fill="#000000" />
<circle cx="80.0" cy="620.0" r="2.0" stroke="#000000" stroke-width="4.0" fill="#000000" />
<circle cx="300.0" cy="500.0" r="2.0" stroke="#000000" stroke-width="4.0" fill="#000000" />
<circle cx="300.0" cy="520.0" r="2.0" stroke="#000000" stroke-width="4.0" fill="#000000" />
</g>
<g>
<path d="M 80,580 L 66,572 L 66,588 Z" stroke="#000000" stroke-width="4.0" fill="none"/>
<text text-anchor="end" x="61.0" y="586.75" fill="#000000" style="font-size:18px">jmpFlag</text>
<circle cx="80.0" cy="580.0" r="2.0" stroke="#000000" stroke-width="4.0" fill="#000000" />
</g>
<g>
<path d="M 80,600 L 66,592 L 66,608 Z" stroke="#000000" stroke-width="4.0" fill="none"/>
<text text-anchor="end" x="61.0" y="606.75" fill="#000000" style="font-size:18px">jmpAddr</text>
<circle cx="80.0" cy="600.0" r="2.0" stroke="#000000" stroke-width="4.0" fill="#000000" />
</g>
<g>
<path d="M 340,500 L 354,508 L 354,492 Z" stroke="#000000" stroke-width="4.0" fill="none"/>
<text text-anchor="start" x="359.0" y="506.75" fill="#000000" style="font-size:18px">intJmpT</text>
<circle cx="340.0" cy="500.0" r="2.0" stroke="#000000" stroke-width="4.0" fill="#000000" />
</g>
<g>
<path d="M 340,520 L 354,528 L 354,512 Z" stroke="#000000" stroke-width="4.0" fill="none"/>
<text text-anchor="start" x="359.0" y="526.75" fill="#000000" style="font-size:18px">intSignalT</text>
<circle cx="340.0" cy="520.0" r="2.0" stroke="#000000" stroke-width="4.0" fill="#000000" />
</g>
<g>
<path d="M 680,60 L 666,52 L 666,68 Z" stroke="#000000" stroke-width="4.0" fill="none"/>
<text text-anchor="end" x="661.0" y="66.75" fill="#000000" style="font-size:18px">intJmpT</text>
<circle cx="680.0" cy="60.0" r="2.0" stroke="#000000" stroke-width="4.0" fill="#000000" />
</g>
<g>
<path d="M 680,80 L 666,72 L 666,88 Z" stroke="#000000" stroke-width="4.0" fill="none"/>
<text text-anchor="end" x="661.0" y="86.75" fill="#000000" style="font-size:18px">intSignalT</text>
<circle cx="680.0" cy="80.0" r="2.0" stroke="#000000" stroke-width="4.0" fill="#000000" />
</g>
<g>
<path d="M 1600,380 L 1614,388 L 1614,372 Z" stroke="#000000" stroke-width="4.0" fill="none"/>
<text text-anchor="start" x="1619.0" y="386.75" fill="#000000" style="font-size:18px">wIntDataT</text>
<circle cx="1600.0" cy="380.0" r="2.0" stroke="#000000" stroke-width="4.0" fill="#000000" />
</g>
<g>
<path d="M 1600,400 L 1614,408 L 1614,392 Z" stroke="#000000" stroke-width="4.0" fill="none"/>
<text text-anchor="start" x="1619.0" y="406.75" fill="#000000" style="font-size:18px">wIntFlagT</text>
<circle cx="1600.0" cy="400.0" r="2.0" stroke="#000000" stroke-width="4.0" fill="#000000" />
</g>
<g>
<path d="M 80,560 L 66,552 L 66,568 Z" stroke="#000000" stroke-width="4.0" fill="none"/>
<text text-anchor="end" x="61.0" y="566.75" fill="#000000" style="font-size:18px">wIntDataT</text>
<circle cx="80.0" cy="560.0" r="2.0" stroke="#000000" stroke-width="4.0" fill="#000000" />
</g>
<g>
<path d="M 80,520 L 66,512 L 66,528 Z" stroke="#000000" stroke-width="4.0" fill="none"/>
<text text-anchor="end" x="61.0" y="526.75" fill="#000000" style="font-size:18px">wIntFlagT</text>
<circle cx="80.0" cy="520.0" r="2.0" stroke="#000000" stroke-width="4.0" fill="#000000" />
</g>
<g>
<path d="M -91,485 L -61,485 L -61,515 L -91,515 Z" stroke="#000000" stroke-width="4.0" fill="none"/>
<circle cx="-76.0" cy="500.0" r="9.0" stroke="#000000" stroke-width="4.0" fill="none" />
<text text-anchor="end" x="-105.0" y="509.0" fill="#000000" style="font-size:24px"><tspan style="font-style:italic;">interrupt<tspan style="font-size:80%;baseline-shift:sub;">bus</tspan></tspan></text>
<circle cx="-60.0" cy="500.0" r="2.0" stroke="#000000" stroke-width="4.0" fill="#000000" />
</g>
<g>
<path d="M 80,620 L 66,612 L 66,628 Z" stroke="#000000" stroke-width="4.0" fill="none"/>
<text text-anchor="end" x="61.0" y="626.75" fill="#000000" style="font-size:18px">clk</text>
<circle cx="80.0" cy="620.0" r="2.0" stroke="#000000" stroke-width="4.0" fill="#000000" />
</g>
</g>
</svg>